<svg width="355" height="297" viewBox="0 0 355 297" fill="none" xmlns="http://www.w3.org/2000/svg">
<path d="M1 296C2.13759 242.391 15.9678 157.602 123.611 132.519C159.766 125.707 168.149 126.231 225.263 123.611C279.233 119.419 327.124 105.377 353.114 1" stroke="#36D6AD" stroke-width="2"/>
<path d="M334.775 1C327.545 37.2351 279.862 109.906 146.965 110.707C83.1337 112.505 10.0208 141.319 2.20991 238.389V274.517C1.27728 261.536 1.31471 249.514 2.20991 238.389V1H334.775Z" fill="#36D6AD"/>
<path d="M334.775 1C327.545 37.2351 279.862 109.906 146.965 110.707C75.8179 112.711 -6.86015 148.278 2.20991 274.517V1H334.775Z" stroke="#36D6AD"/>
</svg>
